<svg width="48" height="24" version="1.1" xmlns="http://www.w3.org/2000/svg" xmlns:xlink="http://www.w3.org/1999/xlink"><symbol id="a"><path fill-rule="evenodd" clip-rule="evenodd" d="M8.976 23.917v-10.66H5.5V9.02h3.476V5.669c0-1.769.481-3.142 1.444-4.12.963-.977 2.242-1.466 3.837-1.466 1.294 0 2.347.062 3.16.187v3.77H15.25c-.813 0-1.37.186-1.67.559-.24.31-.361.806-.361 1.49V9.02h3.837l-.542 4.236h-3.295v10.66H8.976z" fill="#177AE6"/></symbol><symbol id="b"><path d="M8.923 22.154a.5.5 0 00.5.5h3.616a.5.5 0 00.5-.5V13.57h2.307a.5.5 0 00.496-.437l.462-3.609a.5.5 0 00-.496-.563h-2.77v-2c0-.538.098-.824.2-.958.114-.137.394-.286 1.031-.286h1.846a.5.5 0 00.5-.5V2.005a.5.5 0 00-.424-.494c-.727-.112-1.653-.165-2.768-.165-1.47 0-2.696.455-3.625 1.399-.937.951-1.375 2.262-1.375 3.86v2.357H6.462a.5.5 0 00-.5.5v3.609a.5.5 0 00.5.5h2.461v8.583z" stroke="#d4d7d9" stroke-linecap="round" stroke-linejoin="round"/></symbol><use xlink:href="#a" x="0"/><use xlink:href="#b" x="24" fill="none"/></svg>