<svg width="141" height="130" fill="none" xmlns="http://www.w3.org/2000/svg"><path fill-rule="evenodd" clip-rule="evenodd" d="M47.496 23.903v1.783h4.248a3.748 3.748 0 01-.983 2.25 4.329 4.329 0 01-3.275 1.307c-2.579-.039-4.65-2.156-4.65-4.755 0-2.6 2.071-4.717 4.65-4.756a4.505 4.505 0 013.215 1.278l1.25-1.258a6.16 6.16 0 00-4.455-1.852 6.488 6.488 0 00-5.834 3.198 6.591 6.591 0 000 6.691 6.488 6.488 0 005.834 3.198 5.876 5.876 0 004.533-1.833 5.971 5.971 0 001.533-4.18 5.85 5.85 0 00-.098-1.12l-5.968.049zM58.4 22.605c-2.307.006-4.173 1.894-4.169 4.218.004 2.324 1.876 4.205 4.182 4.203 2.307-.002 4.176-1.886 4.176-4.21a4.167 4.167 0 00-1.214-3.003 4.104 4.104 0 00-2.986-1.208h.01zm4.994 4.224c-.007-2.323 1.854-4.213 4.16-4.224a4.104 4.104 0 012.985 1.208 4.168 4.168 0 011.213 3.003c0 2.322-1.867 4.206-4.172 4.21-2.305.004-4.178-1.874-4.186-4.197zm1.694 1.096a2.534 2.534 0 002.466 1.448 2.41 2.41 0 001.715-.777 2.448 2.448 0 00.645-1.78 2.555 2.555 0 00-1.612-2.373 2.523 2.523 0 00-2.782.64 2.57 2.57 0 00-.432 2.842zm-9.16.007a2.534 2.534 0 002.472 1.44h-.01a2.41 2.41 0 001.715-.776 2.447 2.447 0 00.645-1.78 2.555 2.555 0 00-1.614-2.373 2.524 2.524 0 00-2.783.644 2.57 2.57 0 00-.425 2.845zm32.54-5.326a3.937 3.937 0 013.579 2.684l.206.446-5.595 2.328a2.123 2.123 0 002.026 1.278 2.385 2.385 0 002.055-1.168l1.426.99a4.15 4.15 0 01-3.481 1.863 4.074 4.074 0 01-2.963-1.217 4.137 4.137 0 01-1.187-2.993 3.981 3.981 0 011.062-2.964 3.92 3.92 0 012.872-1.247zm-2.125 4.09a2.32 2.32 0 01.58-1.69c.41-.462.988-.738 1.603-.766a1.623 1.623 0 011.554.892l-3.736 1.565h-.001zM83.64 30.78h-1.839V18.395h1.839v12.384zm-4.848-7.232h-.069a2.94 2.94 0 00-2.202-.991c-2.23.112-3.98 1.966-3.98 4.215 0 2.25 1.75 4.104 3.98 4.216a2.841 2.841 0 002.202-.991h.059v.605c0 1.615-.856 2.477-2.232 2.477a2.312 2.312 0 01-2.104-1.497l-1.602.674a3.982 3.982 0 003.706 2.487c2.154 0 3.933-1.278 3.933-4.39v-7.498h-1.69v.693zm-2.107 5.825h.004-.01.006zm1.657-.794a2.334 2.334 0 01-1.657.794 2.559 2.559 0 01-2.319-2.556 2.559 2.559 0 012.323-2.556c.635.033 1.23.323 1.65.804.42.481.63 1.113.581 1.752a2.37 2.37 0 01-.578 1.762zm22.318-10.183h-4.396V30.78h1.84v-4.696h2.566a3.817 3.817 0 003.535-1.84 3.879 3.879 0 000-4.008 3.817 3.817 0 00-3.535-1.84h-.01zm-2.566 5.944h2.566l.039.03c1.165 0 2.11-.951 2.11-2.125a2.118 2.118 0 00-2.11-2.125h-2.605v4.22zm13.903-1.783a3.437 3.437 0 00-3.274 1.892l1.631.684c.33-.61.986-.968 1.672-.912a1.76 1.76 0 011.316.382c.37.3.605.738.651 1.214v.128a4.036 4.036 0 00-1.918-.476c-1.759 0-3.539.99-3.539 2.785a2.87 2.87 0 00.953 2.01 2.83 2.83 0 002.095.714 2.58 2.58 0 002.36-1.19h.059v.992h1.769v-4.765c0-2.17-1.631-3.429-3.726-3.429l-.049-.03zm-1.661 5.736c0 .744.835 1.05 1.435 1.05l.049.03a2.228 2.228 0 002.153-1.982 3.243 3.243 0 00-1.671-.415c-.925 0-1.966.326-1.966 1.317zm11.886-5.438l-2.104 5.368h-.058l-2.184-5.368h-1.966l3.274 7.51-1.868 4.17h1.917l5.035-11.68h-2.046zm-14.688 7.925h-1.839V18.395h1.839v12.384z" fill="#fff"/>

<path d="M10.855 8.786c-.3.365-.443.834-.4 1.306v19.815a1.79 1.79 0 00.417 1.261l.063.064 11.2-11.097v-.261L10.916 8.724l-.062.062z" fill="#5BC9F4"/>

<path d="M25.86 23.846l-3.743-3.72v-.26l3.743-3.712.081.045 4.449 2.504c1.27.712 1.27 1.882 0 2.603l-4.43 2.503-.1.037z" fill="url(#paint0_linear)"/>

<path d="M25.96 23.8L22.134 20 10.853 31.214a1.484 1.484 0 001.885.053l13.23-7.466" fill="url(#paint1_linear)"/>

<path d="M25.96 16.2L12.73 8.732a1.484 1.484 0 00-1.885.053L22.135 20l3.824-3.8z" fill="url(#paint2_linear)"/>

<path d="M48.222 16.743h-.933V15h-5.102v1.748h-.938l-.005-2.515h.581c.306-.345.549-.807.728-1.386a8.244 8.244 0 00.342-1.914l.156-3.042h4.253v6.342h.927l-.01 2.51zm-5.328-2.51h3.467v-5.57h-2.407l-.102 2.089c-.043.817-.152 1.514-.328 2.09-.172.576-.382 1.04-.63 1.391zm6.07-1.923c0-.518.1-.984.303-1.397a2.3 2.3 0 01.85-.957 2.318 2.318 0 011.244-.337c.72 0 1.3.25 1.744.747.446.498.668 1.16.668 1.988v.063c0 .514-.099.977-.297 1.387a2.225 2.225 0 01-.845.952 2.328 2.328 0 01-1.26.342c-.716 0-1.297-.25-1.743-.747-.443-.499-.664-1.158-.664-1.978v-.063zm.908.107c0 .586.135 1.056.405 1.411.274.355.638.532 1.094.532.46 0 .824-.179 1.094-.537.27-.361.405-.866.405-1.513 0-.58-.138-1.049-.415-1.407a1.303 1.303 0 00-1.094-.542c-.446 0-.805.178-1.079.533-.273.354-.41.862-.41 1.523zm7.153 1.943c.323 0 .604-.097.845-.293.241-.195.375-.44.4-.732h.855c-.016.303-.12.59-.313.864a2.052 2.052 0 01-.771.655 2.204 2.204 0 01-1.016.244c-.719 0-1.292-.24-1.718-.718-.424-.482-.635-1.14-.635-1.973v-.151c0-.514.094-.972.283-1.372.189-.4.46-.712.81-.933.355-.221.774-.332 1.255-.332.593 0 1.084.178 1.475.532.394.355.604.816.63 1.382h-.855a1.23 1.23 0 00-.39-.84 1.194 1.194 0 00-.86-.332c-.459 0-.815.166-1.069.498-.25.33-.376.806-.376 1.431v.17c0 .61.125 1.078.376 1.407.25.329.609.493 1.074.493zm7.041-3.91h-1.772V15h-.903v-4.55h-1.739v-.733h4.414v.732zm2.666 3.227l1.23-3.96h.968l-2.124 6.098c-.33.88-.852 1.319-1.568 1.319l-.17-.015-.337-.063v-.733l.244.02c.306 0 .543-.062.713-.186.172-.123.314-.35.424-.678l.2-.538-1.884-5.224h.986l1.318 3.96zM74.061 15h-.903v-4.536h-2.431V15h-.909V9.717h4.243V15zm5.767 0h-.903v-2.256h-2.427V15h-.908V9.717h.908v2.29h2.427v-2.29h.903V15zm1.216-2.69c0-.518.1-.984.303-1.397a2.3 2.3 0 01.85-.957 2.318 2.318 0 011.244-.337c.72 0 1.3.25 1.744.747.445.498.668 1.16.668 1.988v.063c0 .514-.099.977-.297 1.387a2.225 2.225 0 01-.845.952 2.327 2.327 0 01-1.26.342c-.716 0-1.297-.25-1.743-.747-.443-.499-.664-1.158-.664-1.978v-.063zm.908.107c0 .586.135 1.056.405 1.411.274.355.638.532 1.094.532.46 0 .824-.179 1.094-.537.27-.361.405-.866.405-1.513 0-.58-.138-1.049-.415-1.407a1.303 1.303 0 00-1.094-.542c-.446 0-.805.178-1.079.533-.273.354-.41.862-.41 1.523zM89.55 15V9.717h2.06c.704 0 1.242.123 1.617.37.377.245.566.605.566 1.08 0 .244-.073.466-.22.664-.146.195-.363.345-.65.45.32.074.575.22.767.439.196.218.293.478.293.781 0 .485-.179.856-.537 1.113-.355.257-.858.386-1.508.386H89.55zm.903-2.32v1.593h1.494c.378 0 .66-.07.845-.21a.693.693 0 00.283-.591c0-.528-.387-.791-1.162-.791h-1.46zm0-.722h1.167c.846 0 1.27-.247 1.27-.742s-.4-.75-1.201-.767h-1.236v1.509z" fill="#fff"/>







<defs><linearGradient id="paint0_linear" x1="29.566" y1="10.864" x2="7.654" y2="10.864" gradientUnits="userSpaceOnUse"><stop stop-color="#FEE000"/><stop offset=".42" stop-color="#FBBC0E"/><stop offset=".78" stop-color="#FAA418"/><stop offset="1" stop-color="#F99B1C"/></linearGradient><linearGradient id="paint1_linear" x1="8.202" y1="17.502" x2=".701" y2="39.487" gradientUnits="userSpaceOnUse"><stop stop-color="#EF4547"/><stop offset="1" stop-color="#C6186D"/></linearGradient><linearGradient id="paint2_linear" x1="-1.31" y1="1.091" x2="4.821" y2="19.039" gradientUnits="userSpaceOnUse"><stop stop-color="#279E6F"/><stop offset=".04" stop-color="#2BA06F"/><stop offset=".46" stop-color="#53B26C"/><stop offset=".8" stop-color="#6BBD6A"/><stop offset="1" stop-color="#74C169"/></linearGradient><clipPath id="clip0"><path fill="#fff" transform="translate(11 100)" d="M0 0h20v12H0z"/></clipPath></defs></svg>