<svg width="48" height="24" version="1.1" xmlns="http://www.w3.org/2000/svg" xmlns:xlink="http://www.w3.org/1999/xlink"><symbol id="a"><path d="M15.614 11.996a3.611 3.611 0 01-7.22 0 3.611 3.611 0 013.61-3.61 3.616 3.616 0 013.61 3.61zM12.004 0C5.385 0 0 5.385 0 12.004 0 18.622 5.385 24 12.004 24c2.422 0 4.76-.722 6.761-2.09l.038-.023-1.617-1.88-.03.014a9.54 9.54 0 01-5.152 1.512c-5.258 0-9.537-4.28-9.537-9.537 0-5.257 4.28-9.537 9.537-9.537 5.257 0 9.537 4.28 9.537 9.537a9.55 9.55 0 01-.226 2.053c-.3 1.242-1.166 1.618-1.82 1.565-.655-.053-1.422-.519-1.43-1.662v-1.956a6.076 6.076 0 00-6.069-6.07 6.076 6.076 0 00-6.07 6.07 6.076 6.076 0 006.07 6.07 6.05 6.05 0 004.302-1.79 3.906 3.906 0 003.001 1.79c.106.007.218.015.324.015a4.08 4.08 0 002.436-.82c.723-.549 1.257-1.339 1.55-2.286.045-.15.135-.504.135-.504v-.015c.173-.76.256-1.52.256-2.46C24.008 5.386 18.622 0 12.004 0z" fill="#FC2C38"/></symbol><use xlink:href="#a" x="0"/></svg>