<svg width="48" height="24" version="1.1" xmlns="http://www.w3.org/2000/svg" xmlns:xlink="http://www.w3.org/1999/xlink"><symbol id="b"><path d="M1 4.5a.5.5 0 00-.5.51c.09 4.445 1.227 8.07 3.358 10.592 2.141 2.535 5.24 3.898 9.125 3.898h.425a.5.5 0 00.5-.5v-4.408a6.24 6.24 0 012.755 1.406 6.441 6.441 0 011.952 3.134.5.5 0 00.482.368H23a.5.5 0 00.483-.628 11.651 11.651 0 00-2.179-4.314 11.418 11.418 0 00-2.995-2.62 11.078 11.078 0 002.58-2.651 11.287 11.287 0 001.777-4.188.5.5 0 00-.49-.599H18.63a.5.5 0 00-.482.366 8.69 8.69 0 01-1.969 3.512c-.716.77-1.508 1.308-2.27 1.543V5a.5.5 0 00-.5-.5H9.863a.5.5 0 00-.5.5v8.992c-1.818-.823-3.99-3.377-4.098-9.002a.5.5 0 00-.5-.49H1z" stroke="#d4d7d9" stroke-linecap="round" stroke-linejoin="round"/></symbol><use xlink:href="#a" x="0"/><use xlink:href="#b" x="24" fill="none"/></svg>